<svg xmlns="http://www.w3.org/2000/svg" width="20" height="20" viewBox="0 0 20 20" fill="none">
    <path d="M9.99486 1.99902C8.40424 1.99902 6.87876 2.6309 5.75402 3.75564C4.62928 4.88038 3.99741 6.40585 3.99741 7.99647V11.5809L3.29071 12.2876C3.15096 12.4274 3.05579 12.6055 3.01724 12.7994C2.97869 12.9933 2.99849 13.1942 3.07412 13.3768C3.14976 13.5595 3.27785 13.7156 3.44219 13.8254C3.60653 13.9352 3.79974 13.9939 3.99741 13.9939H15.9923C16.19 13.9939 16.3832 13.9352 16.5475 13.8254C16.7119 13.7156 16.84 13.5595 16.9156 13.3768C16.9912 13.1942 17.011 12.9933 16.9725 12.7994C16.9339 12.6055 16.8388 12.4274 16.699 12.2876L15.9923 11.5809V7.99647C15.9923 6.40585 15.3604 4.88038 14.2357 3.75564C13.111 2.6309 11.5855 1.99902 9.99486 1.99902ZM9.99486 17.9922C9.19955 17.9922 8.43681 17.6763 7.87444 17.1139C7.31207 16.5515 6.99613 15.7888 6.99613 14.9935H12.9936C12.9936 15.7888 12.6776 16.5515 12.1153 17.1139C11.5529 17.6763 10.7902 17.9922 9.99486 17.9922Z" fill="#057DFF"/>
  </svg>