<svg width="22" height="22" viewBox="0 0 22 22" fill="none" xmlns="http://www.w3.org/2000/svg">
    <path
        d="M2.35714 4.71552H0.785714C0.57733 4.71552 0.37748 4.63275 0.23013 4.48541C0.0827803 4.33807 0 4.13823 0 3.92986C0 3.72149 0.0827803 3.52166 0.23013 3.37432C0.37748 3.22698 0.57733 3.1442 0.785714 3.1442H7.07143V0.785658C7.07143 0.577289 7.15421 0.377453 7.30156 0.230114C7.44891 0.0827745 7.64876 0 7.85714 0H14.1429C14.3512 0 14.5511 0.0827745 14.6984 0.230114C14.8458 0.377453 14.9286 0.577289 14.9286 0.785658V3.1442H21.2143C21.4227 3.1442 21.6225 3.22698 21.7699 3.37432C21.9172 3.52166 22 3.72149 22 3.92986C22 4.13823 21.9172 4.33807 21.7699 4.48541C21.6225 4.63275 21.4227 4.71552 21.2143 4.71552H19.6429V21.2143C19.6429 21.4227 19.5601 21.6225 19.4127 21.7699C19.2654 21.9172 19.0655 22 18.8571 22H3.14286C2.93447 22 2.73462 21.9172 2.58727 21.7699C2.43992 21.6225 2.35714 21.4227 2.35714 21.2143V4.71552ZM13.3571 3.1442V1.57289H8.64286V3.1442H13.3571ZM3.92857 20.4287H18.0714V4.71552H3.92857V20.4287ZM8.64286 17.2861C8.43447 17.2861 8.23462 17.2033 8.08727 17.0559C7.93992 16.9086 7.85714 16.7088 7.85714 16.5004V8.64381C7.85714 8.43544 7.93992 8.23561 8.08727 8.08827C8.23462 7.94093 8.43447 7.85815 8.64286 7.85815C8.85124 7.85815 9.05109 7.94093 9.19844 8.08827C9.34579 8.23561 9.42857 8.43544 9.42857 8.64381V16.5004C9.42857 16.7088 9.34579 16.9086 9.19844 17.0559C9.05109 17.2033 8.85124 17.2861 8.64286 17.2861ZM13.3571 17.2861C13.1488 17.2861 12.9489 17.2033 12.8016 17.0559C12.6542 16.9086 12.5714 16.7088 12.5714 16.5004V8.64381C12.5714 8.43544 12.6542 8.23561 12.8016 8.08827C12.9489 7.94093 13.1488 7.85815 13.3571 7.85815C13.5655 7.85815 13.7654 7.94093 13.9127 8.08827C14.0601 8.23561 14.1429 8.43544 14.1429 8.64381V16.5004C14.1429 16.7088 14.0601 16.9086 13.9127 17.0559C13.7654 17.2033 13.5655 17.2861 13.3571 17.2861Z"
        fill="#FF4946" />
</svg>
    