<svg xmlns="http://www.w3.org/2000/svg" width="24" height="24" viewBox="0 0 24 24" fill="none">
    <path
        d="M18.375 0H5.625C2.5184 0 0 2.5184 0 5.625V18.375C0 21.4816 2.5184 24 5.625 24H18.375C21.4816 24 24 21.4816 24 18.375V5.625C24 2.5184 21.4816 0 18.375 0Z"
        fill="#5865F2" />
    <mask id="mask0_490_8805" style="mask-type:luminance" maskUnits="userSpaceOnUse" x="2" y="4"
        width="20" height="16">
        <path d="M2.625 4.78125H21.375V19.3059H2.625V4.78125Z" fill="white" />
    </mask>
    <g mask="url(#mask0_490_8805)">
        <path
            d="M18.4976 6.07486C17.2819 5.51693 15.9991 5.11902 14.6811 4.89108C14.6691 4.8889 14.6568 4.89052 14.6458 4.89574C14.6348 4.90095 14.6257 4.90949 14.6198 4.92014C14.455 5.21321 14.2723 5.59571 14.1446 5.89627C12.7033 5.68046 11.2696 5.68046 9.85804 5.89627C9.73016 5.58896 9.54097 5.21321 9.37541 4.92014C9.36931 4.90966 9.36018 4.90127 9.34922 4.89609C9.33826 4.8909 9.32598 4.88915 9.314 4.89108C7.99589 5.1185 6.71297 5.51643 5.49754 6.07486C5.48719 6.07937 5.47843 6.08688 5.47241 6.09643C3.04166 9.72793 2.37585 13.2702 2.70247 16.7686C2.70446 16.7858 2.71323 16.8016 2.72685 16.8124C4.33054 17.9902 5.88407 18.7052 7.40872 19.1791C7.42059 19.1827 7.43324 19.1825 7.44499 19.1786C7.45675 19.1748 7.46705 19.1674 7.47454 19.1576C7.83519 18.665 8.15666 18.1457 8.43238 17.5996C8.43618 17.5922 8.43834 17.584 8.43874 17.5756C8.43914 17.5672 8.43775 17.5588 8.43468 17.551C8.4316 17.5432 8.42691 17.5362 8.42091 17.5303C8.4149 17.5245 8.40773 17.5199 8.39985 17.5171C7.88985 17.3236 7.40432 17.0878 6.93725 16.8199C6.92875 16.8149 6.92161 16.8079 6.91645 16.7995C6.9113 16.791 6.90831 16.7815 6.90772 16.7716C6.90714 16.7618 6.90899 16.7519 6.91311 16.7429C6.91723 16.734 6.92349 16.7262 6.93135 16.7202C7.02988 16.6465 7.12672 16.5706 7.22179 16.4926C7.23012 16.4857 7.2402 16.4813 7.2509 16.4798C7.26159 16.4784 7.27248 16.4799 7.28235 16.4843C10.351 17.8853 13.673 17.8853 16.7053 16.4843C16.7153 16.4796 16.7263 16.4779 16.7371 16.4792C16.748 16.4805 16.7583 16.4849 16.7668 16.4918C16.8619 16.5703 16.959 16.6465 17.0579 16.7202C17.0658 16.7261 17.0721 16.7339 17.0763 16.7428C17.0805 16.7517 17.0824 16.7616 17.0819 16.7714C17.0814 16.7813 17.0785 16.7909 17.0734 16.7993C17.0683 16.8078 17.0612 16.8148 17.0528 16.8199C16.5855 17.0928 16.0959 17.3258 15.5894 17.5163C15.5816 17.5193 15.5745 17.524 15.5685 17.5299C15.5626 17.5359 15.558 17.543 15.555 17.5509C15.552 17.5588 15.5507 17.5672 15.5511 17.5756C15.5516 17.584 15.5538 17.5922 15.5577 17.5996C15.8381 18.1414 16.158 18.6619 16.5147 19.1568C16.522 19.1669 16.5322 19.1745 16.544 19.1785C16.5558 19.1825 16.5685 19.1827 16.5805 19.1791C18.1125 18.7052 19.6661 17.9902 21.2698 16.8124C21.2767 16.8073 21.2824 16.8009 21.2866 16.7935C21.2908 16.786 21.2934 16.7778 21.2942 16.7693C21.6852 12.7248 20.6394 9.21155 18.5219 6.09718C18.5168 6.08703 18.5081 6.0791 18.4976 6.07486ZM8.89063 14.6385C7.96672 14.6385 7.20547 13.7903 7.20547 12.7486C7.20547 11.707 7.952 10.8588 8.89063 10.8588C9.83657 10.8588 10.5904 11.7145 10.5756 12.7486C10.5756 13.7903 9.82916 14.6385 8.89063 14.6385ZM15.1209 14.6385C14.197 14.6385 13.4358 13.7903 13.4358 12.7486C13.4358 11.707 14.1823 10.8588 15.1209 10.8588C16.0668 10.8588 16.8207 11.7145 16.8059 12.7486C16.8059 13.7903 16.0668 14.6385 15.1209 14.6385Z"
            fill="white" />
    </g>
</svg>