<svg width="24" height="24" viewBox="0 0 24 24" fill="none" xmlns="http://www.w3.org/2000/svg">
    <path
        d="M11.4231 2.15387H3.31624C2.70193 2.15387 2.11279 2.3979 1.67841 2.83228C1.24403 3.26666 1 3.8558 1 4.47011V20.6838C1 21.2981 1.24403 21.8872 1.67841 22.3216C2.11279 22.756 2.70193 23 3.31624 23H19.5299C20.1442 23 20.7334 22.756 21.1677 22.3216C21.6021 21.8872 21.8461 21.2981 21.8461 20.6838V12.5769"
        stroke="white" stroke-width="2" stroke-linecap="round" stroke-linejoin="round" />
    <path
        d="M18.8062 1.71956C19.267 1.25883 19.8919 1 20.5434 1C21.195 1 21.8199 1.25883 22.2806 1.71956C22.7413 2.18029 23.0002 2.80517 23.0002 3.45674C23.0002 4.10831 22.7413 4.73319 22.2806 5.19392L11.8425 15.6332C11.5675 15.908 11.2278 16.1091 10.8546 16.2181L7.52733 17.1909C7.42767 17.2199 7.32204 17.2217 7.22148 17.1959C7.12092 17.1702 7.02914 17.1178 6.95574 17.0444C6.88233 16.971 6.83001 16.8792 6.80425 16.7787C6.77849 16.6781 6.78023 16.5725 6.80929 16.4728L7.78211 13.1456C7.89159 12.7727 8.09311 12.4334 8.36812 12.1588L18.8062 1.71956Z"
        stroke="white" stroke-width="2" stroke-linecap="round" stroke-linejoin="round" />
</svg>
    